<?xml version="1.0" encoding="utf-8"?>
<!-- Generator: Adobe Illustrator 22.1.0, SVG Export Plug-In . SVG Version: 6.00 Build 0)  -->
<svg version="1.1" id="Layer_1" xmlns="http://www.w3.org/2000/svg" xmlns:xlink="http://www.w3.org/1999/xlink" x="0px" y="0px"
	 viewBox="0 0 90 15" style="enable-background:new 0 0 90 15;" xml:space="preserve">
<style type="text/css">
	.st0{clip-path:url(#SVGID_2_);fill:#FFFFFF;}
</style>
<g>
	<defs>
		<rect id="SVGID_1_" x="1" y="0.8" width="88" height="13.5"/>
	</defs>
	<clipPath id="SVGID_2_">
		<use xlink:href="#SVGID_1_"  style="overflow:visible;"/>
	</clipPath>
	<path class="st0" d="M85.6,13.9l-2.7-5.2h-2.4v5.2h-2.8V6h6.7c0.7,0,1.2-0.5,1.2-1.2c0-0.7-0.5-1.2-1.2-1.2h-6.7V1h6.2v0
		c2.5,0.1,4.6,1,4.6,3.9c0,1.8-1,3.2-2.8,3.5l3.3,5.4H85.6z M73.9,3.6h-9V1h9V3.6z M73.9,13.9h-9v-2.6h9V13.9z M61.6,13.9H52V1h2.8
		v10.2h6.8V13.9z M49.2,13.9h-9.6V1.1h2.8v10.2h6.8V13.9z M36.1,3.6h-9V1h9V3.6z M36.1,13.9h-9v-2.6h9V13.9z M23.5,3.6h-3.7v10.2H17
		V3.6h-3.7V1.1h10.1V3.6z M5.3,14.2c-1.6,0-3.1-0.5-4.3-1.6l2-2.2c0.6,0.8,1.5,1.2,2.5,1.2c0.9,0,2-0.4,2-1.3c0-2.4-6-1.1-6-5.4
		c0-2.7,2.4-4.2,4.9-4.2c1.5,0,2.8,0.4,3.9,1.3L8.3,4.2c-0.4-0.6-1.4-0.9-2-0.9c-0.8,0-1.9,0.4-1.9,1.3c0,2.3,5.9,0.8,5.9,5.3
		C10.2,12.9,7.9,14.2,5.3,14.2 M27,6h6.6v2.6H27V6z M64.9,6h6.6v2.6h-6.6V6z"/>
</g>
</svg>
