<?xml version="1.0" encoding="utf-8"?>
<!-- Generator: Adobe Illustrator 22.1.0, SVG Export Plug-In . SVG Version: 6.00 Build 0)  -->
<svg version="1.1" id="Layer_1" xmlns="http://www.w3.org/2000/svg" xmlns:xlink="http://www.w3.org/1999/xlink" x="0px" y="0px"
	 viewBox="0 0 460 402" style="enable-background:new 0 0 460 402;" xml:space="preserve">
<style type="text/css">
	.st0{clip-path:url(#SVGID_2_);fill:#EDEEF1;}
</style>
<g>
	<defs>
		<rect id="SVGID_1_" x="0.9" y="0.4" width="458.3" height="401.3"/>
	</defs>
	<clipPath id="SVGID_2_">
		<use xlink:href="#SVGID_1_"  style="overflow:visible;"/>
	</clipPath>
	<path class="st0" d="M381.9,321.3c0.4-0.1,0.9-0.2,1.4-0.2c0.6,0,1,0.1,1.4,0.2c0.4,0.1,0.6,0.2,0.7,0.3c1.3,0.8,2.3,1.8,3,3.2
		c0.7,1.3,1.3,2.9,1.6,4.6c0.4,1.7,0.6,3.5,0.6,5.4c0.1,1.9,0.1,3.8,0.1,5.6h-15.1v-0.7c0-5.5,0.4-9.7,1.3-12.5s2.2-4.6,4-5.6
		C381.2,321.5,381.5,321.4,381.9,321.3 M389.5,352.3c-1.7,1.7-2.5,3.6-2.5,5.9c0,2.3,0.9,4.4,2.6,6.1c0.6,0.6,1.2,1.2,1.8,1.9
		c0.6,0.7,0.8,1.5,0.6,2.5c-0.4,1.3-1.3,2.3-2.7,2.8c-1.5,0.5-2.8,0.7-3.9,0.7c-1.6,0-3-0.3-4.2-0.9c-1.2-0.6-2.1-1.6-2.9-3.1
		c-0.8-1.5-1.4-3.4-1.8-5.7c-0.4-2.4-0.6-5.4-0.6-9v-6.9V341h30.8c0-2.4-0.6-4.9-1.7-7.3c-1.1-2.5-2.7-4.7-4.8-6.7
		c-2.1-2-4.5-3.5-7.3-4.8c-2.8-1.2-6-1.9-9.4-1.9c-3.8,0-7.1,0.7-10.2,2.1c-3,1.4-5.6,3.2-7.7,5.6c-2.1,2.3-3.7,5.1-4.8,8.3
		c-1.1,3.2-1.6,6.6-1.6,10.2c0,3.6,0.5,7,1.6,10.2c1.1,3.2,2.7,6,4.8,8.4c2.1,2.4,4.6,4.3,7.7,5.6c3,1.4,6.4,2.1,10.2,2.1
		c2.8,0,5.5-0.4,8-1.1c2.5-0.7,4.6-1.8,6.5-3.1c1.8-1.3,3.3-2.9,4.4-4.6c1.1-1.7,1.6-3.6,1.6-5.7c0-2.3-0.8-4.2-2.5-5.9
		c-1.7-1.7-3.6-2.5-5.9-2.5C393.1,349.8,391.1,350.7,389.5,352.3 M328.9,304.4c-3.8,4-5.7,9.7-5.7,17v45.1v3c0,0.8-0.2,1.4-0.7,1.9
		c-0.5,0.5-1.1,0.7-1.9,0.7v0.6h1.7h20.5v-0.6c-0.8,0-1.4-0.2-1.9-0.7c-0.5-0.5-0.7-1.1-0.7-1.9v-33.6h2.8c2.3,0,4.3,0.8,6,2.4
		c1.6,1.6,2.4,3.6,2.4,6h0.6v-17.5h-0.6c0,2.3-0.8,4.3-2.4,6c-1.6,1.6-3.6,2.4-6,2.4h-2.8v-3.8v-16.1c0-5.7,0.4-9.8,1.2-12.4
		c0.8-2.6,2.5-3.9,5.2-3.9c0.9,0,1.8,0.3,2.8,0.8c1,0.5,1.7,1.4,2,2.6c0.2,1,0,1.8-0.6,2.5c-0.6,0.7-1.2,1.3-1.8,1.9
		c-1.7,1.7-2.6,3.7-2.6,6.1c0,2.3,0.8,4.2,2.5,5.9c1.7,1.7,3.6,2.5,5.9,2.5c2.3,0,4.3-0.8,6-2.5c1.7-1.7,2.5-3.6,2.5-5.9
		c0-2-0.4-3.9-1.3-5.6c-0.9-1.8-2.1-3.3-3.8-4.7c-1.6-1.3-3.6-2.4-5.9-3.1c-2.3-0.7-4.8-1.1-7.4-1.1
		C338,298.3,332.7,300.3,328.9,304.4 M295.7,356.7v12.8c0,0.8-0.2,1.4-0.7,1.9c-0.5,0.5-1.1,0.7-1.9,0.7v0.6h11.9h8.8h1.5v-0.6
		c-0.8,0-1.4-0.2-1.9-0.7c-0.5-0.5-0.7-1.1-0.7-1.9v-12.8v-20.4v-12.7c0-0.8,0.2-1.4,0.7-1.9c0.5-0.5,1.1-0.7,1.9-0.7v-0.6h-1.5
		h-8.8H293v0.6c0.8,0,1.4,0.2,1.9,0.7c0.5,0.5,0.7,1.1,0.7,1.9v12.7V356.7z M310.1,300.8c-1.7-1.7-3.7-2.5-6-2.5
		c-2.3,0-4.2,0.8-5.9,2.5c-1.7,1.7-2.5,3.6-2.5,5.9c0,2.3,0.8,4.3,2.5,6c1.7,1.6,3.6,2.4,5.9,2.4c2.3,0,4.3-0.8,6-2.4
		c1.7-1.6,2.5-3.6,2.5-6C312.6,304.5,311.7,302.5,310.1,300.8 M285,314.4v-12.8c0-0.8,0.2-1.4,0.7-1.9c0.5-0.5,1.1-0.7,1.9-0.7v-0.6
		h-1.5h-8.8h-11.9v0.6c0.8,0,1.4,0.2,1.9,0.7c0.5,0.5,0.7,1.1,0.7,1.9v12.8v42.4v12.8c0,0.8-0.2,1.4-0.7,1.9
		c-0.5,0.5-1.1,0.7-1.9,0.7v0.6h11.9h8.8h1.5v-0.6c-0.8,0-1.4-0.2-1.9-0.7c-0.5-0.5-0.7-1.1-0.7-1.9v-12.8V314.4z M238.4,369.5v-6
		v-29.5c0-4.1-0.9-7.2-2.7-9.4c-1.8-2.1-4.1-3.5-6.9-4c-2.8-0.6-5.8-0.5-9.1,0.3c-3.3,0.8-6.4,2.1-9.3,3.8l0-3.5v-7.1v-6.5
		c0-3.4-0.6-5.8-1.7-7.2c-1.1-1.4-3.1-2.1-6-2.1h-11.9v0.6c0.8,0,1.4,0.2,1.9,0.7c0.5,0.5,0.7,1.1,0.7,1.9v12.8v7.4v34.9v12.8
		c0,0.8-0.2,1.4-0.7,1.9c-0.5,0.5-1.1,0.7-1.9,0.7v0.6h11.9h8.9h1.5v-0.6c-0.8,0-1.4-0.2-1.9-0.7c-0.5-0.5-0.8-1.1-0.8-1.9v-12.8
		v-3.4v-27.7c1.1-0.6,2.2-1.1,3.5-1.5c1.3-0.4,2.5-0.4,3.6-0.1c1.1,0.3,2.1,1.1,2.8,2.2c0.7,1.2,1.1,3,1.1,5.4v30.2v7.6
		c0,0.8-0.3,1.4-0.8,1.9c-0.5,0.5-1.2,0.7-1.9,0.7v0.6h11.9h9h1.4v-0.6c-0.8,0-1.4-0.2-1.9-0.7C238.7,370.9,238.4,370.3,238.4,369.5
		 M155.5,337.8v-4.6c0-8.2,2.1-12.2,6.2-12.2c4.1,0,6.2,4.1,6.2,12.2v4.6v4.6c0,8.1-2.1,12.1-6.2,12.1c-4.1,0-6.2-4-6.2-12.1V337.8z
		 M156.4,358.4c-1.7-0.1-3.4-0.3-4.9-0.5c-1.5-0.2-2.9-0.5-4-0.9c-1.2-0.4-2-0.9-2.4-1.5c-0.6-0.9-0.8-1.8-0.5-2.8
		c0.3-0.9,1-1.7,2.1-2.2c1.8,1.4,4,2.5,6.5,3.3c2.5,0.8,5.3,1.2,8.5,1.4c3.3-0.1,6.3-0.6,9-1.5c2.7-1,4.9-2.2,6.8-3.8
		c1.9-1.6,3.3-3.4,4.3-5.5c1-2.1,1.5-4.3,1.5-6.7s-0.5-4.6-1.5-6.7c-1-2.1-2.4-3.9-4.3-5.5c-1.9-1.6-4.2-2.8-6.8-3.8
		c-2.7-1-5.7-1.5-9-1.5c-3.4,0.1-6.4,0.6-9.1,1.5c-2.7,1-4.9,2.2-6.8,3.8c-1.8,1.6-3.3,3.4-4.3,5.5c-1,2.1-1.5,4.3-1.5,6.7
		c0,5,2,9,6,12.2c-2.7,0.6-5,1.9-6.8,4c-1.8,2.1-2.8,4.6-2.8,7.6c0,2.5,0.7,4.7,2.1,6.7c1.4,2,3.1,3.4,5.3,4.3
		c1.7,0.7,3.7,1.3,5.9,1.6c2.2,0.4,4.6,0.7,7.1,1c2.5,0.2,4.9,0.5,7.4,0.8c2.4,0.3,4.7,0.7,6.9,1.3c2.2,0.6,4,1.7,5.5,3.4
		c1.5,1.7,2.2,3.8,2.2,6.2c0,1.7-0.3,3.4-0.9,5.1c-0.6,1.7-1.6,3.2-2.9,4.5c-1.3,1.3-3.1,2.4-5.3,3.3c-2.2,0.9-4.8,1.3-8,1.3
		c-1.1,0-2.4-0.1-3.9-0.2c-1.5-0.1-3-0.4-4.4-0.9c-1.4-0.4-2.6-1-3.5-1.8c-1-0.8-1.4-1.8-1.4-3.2c0-1.1,0.3-2.1,1-2.9
		c0.7-0.8,1.2-1.4,1.5-1.9c0.8-0.8,1.4-1.7,1.8-2.7c0.4-1,0.7-2.1,0.7-3.2c0-2.3-0.8-4.3-2.5-6c-1.6-1.7-3.6-2.5-6-2.5
		c-2.4,0-4.4,0.8-6,2.5c-1.6,1.7-2.5,3.7-2.5,6c0,2.4,0.7,4.7,2,6.8c1.3,2.1,3.1,3.9,5.4,5.5c2.3,1.6,4.9,2.8,7.9,3.7
		c3,0.9,6.3,1.4,9.7,1.4h0.1c3.5,0,6.7-0.5,9.7-1.5c3-1,5.7-2.4,7.9-4.3c2.3-1.8,4.1-4.1,5.4-6.8c1.3-2.7,2-5.7,2-9
		c0-6-2.2-10.9-6.7-14.7c-4.5-3.9-10.6-6.1-18.3-6.7C159.9,358.6,158.2,358.5,156.4,358.4 M111.6,356.7v12.8c0,0.8-0.2,1.4-0.7,1.9
		c-0.5,0.5-1.1,0.7-1.9,0.7v0.6h11.9h8.8h1.5v-0.6c-0.8,0-1.4-0.2-1.9-0.7c-0.5-0.5-0.7-1.1-0.7-1.9v-12.8v-20.4v-12.7
		c0-0.8,0.2-1.4,0.7-1.9c0.5-0.5,1.1-0.7,1.9-0.7v-0.6h-1.5h-8.8h-11.9v0.6c0.8,0,1.4,0.2,1.9,0.7c0.5,0.5,0.7,1.1,0.7,1.9v12.7
		V356.7z M126,300.8c-1.7-1.7-3.7-2.5-6-2.5c-2.3,0-4.2,0.8-5.9,2.5c-1.7,1.7-2.5,3.6-2.5,5.9c0,2.3,0.8,4.3,2.5,6
		c1.7,1.6,3.6,2.4,5.9,2.4c2.3,0,4.3-0.8,6-2.4c1.7-1.6,2.5-3.6,2.5-6C128.5,304.5,127.6,302.5,126,300.8 M101,369.5v-6v-29.5
		c0-4.1-0.9-7.2-2.7-9.4c-1.8-2.1-4.1-3.5-6.9-4c-2.8-0.6-5.8-0.5-9.1,0.3c-3.3,0.8-6.4,2.1-9.3,3.8l0-3.5v-7.1v-6.5
		c0-3.4-0.6-5.8-1.7-7.2c-1.1-1.4-3.1-2.1-6-2.1H53.5v0.6c0.8,0,1.4,0.2,1.9,0.7c0.5,0.5,0.7,1.1,0.7,1.9v12.8v7.4v34.9v12.8
		c0,0.8-0.2,1.4-0.7,1.9c-0.5,0.5-1.1,0.7-1.9,0.7v0.6h11.9h8.9h1.5v-0.6c-0.8,0-1.4-0.2-1.9-0.7c-0.5-0.5-0.8-1.1-0.8-1.9v-12.8
		v-3.4v-27.7c1.1-0.6,2.2-1.1,3.5-1.5c1.3-0.4,2.5-0.4,3.6-0.1c1.1,0.3,2.1,1.1,2.8,2.2c0.7,1.2,1.1,3,1.1,5.4v30.2v7.6
		c0,0.8-0.3,1.4-0.8,1.9c-0.5,0.5-1.2,0.7-1.9,0.7v0.6h11.9h9h1.4v-0.6c-0.8,0-1.4-0.2-1.9-0.7C101.3,370.9,101,370.3,101,369.5"/>
	<path class="st0" d="M424.6,151.7c0.5-0.2,1.2-0.3,2-0.3c0.8,0,1.4,0.1,1.9,0.3c0.5,0.2,0.8,0.3,1,0.4c1.8,1.1,3.2,2.6,4.2,4.5
		c1,1.9,1.8,4,2.3,6.4c0.5,2.4,0.8,4.9,0.9,7.6c0.1,2.7,0.1,5.3,0.1,7.9h-21.2v-1c0-7.7,0.6-13.6,1.8-17.4c1.2-3.9,3.1-6.5,5.7-7.9
		C423.7,152.1,424.1,151.9,424.6,151.7 M435.2,195.1c-2.3,2.3-3.5,5.1-3.5,8.3c0,3.3,1.2,6.1,3.6,8.5c0.8,0.8,1.6,1.7,2.5,2.6
		c0.8,0.9,1.1,2.1,0.8,3.5c-0.5,1.9-1.8,3.2-3.8,3.9c-2,0.7-3.9,1-5.4,1c-2.3,0-4.2-0.4-5.9-1.3c-1.6-0.8-3-2.3-4.1-4.3
		c-1.1-2-1.9-4.7-2.5-8c-0.5-3.3-0.8-7.5-0.8-12.6V187v-7.7h43.1c0-3.4-0.8-6.8-2.4-10.3c-1.6-3.5-3.8-6.6-6.7-9.3
		c-2.9-2.7-6.3-5-10.3-6.7c-4-1.7-8.3-2.6-13.1-2.6c-5.3,0-10,1-14.2,2.9c-4.2,1.9-7.8,4.5-10.7,7.8c-2.9,3.3-5.2,7.2-6.7,11.6
		c-1.5,4.5-2.3,9.2-2.3,14.3c0,5.1,0.8,9.8,2.3,14.3c1.5,4.5,3.8,8.4,6.7,11.7c2.9,3.3,6.5,6,10.7,7.9c4.2,1.9,9,2.9,14.2,2.9
		c4,0,7.7-0.5,11.2-1.6c3.5-1,6.5-2.5,9.1-4.4c2.6-1.9,4.6-4,6.2-6.5c1.5-2.4,2.3-5.1,2.3-8c0-3.2-1.2-5.9-3.5-8.3
		c-2.3-2.3-5.1-3.5-8.3-3.5C440.4,191.6,437.5,192.8,435.2,195.1 M339.5,213.1c-2.3-5.6-3.3-14.2-3.2-25.9
		c0.1-5.8,0.5-10.7,1.1-14.7c0.6-4,1.6-7.3,2.7-9.8c1.2-2.5,2.5-4.3,4.1-5.4c1.6-1.1,3.3-1.8,5.1-2c1.6-0.1,3.1,0.1,4.6,0.7
		c1.5,0.5,2.8,1.2,4,1.9v43.8v9.1v1.8c0,0.6,0,1.1,0.1,1.6c-1.3,1.9-2.8,3.4-4.4,4.5c-1.6,1.1-3.2,1.8-4.8,2
		C345,221.2,341.8,218.7,339.5,213.1 M381.7,214.6v-13.3v-48.9v-19.8c0-4.8-0.8-8.1-2.3-10.1c-1.5-2-4.4-3-8.4-3h-16.7v0.9
		c1.1,0,2,0.3,2.7,1c0.7,0.7,1.1,1.6,1.1,2.7v27.6v4.9c-1.9-1.1-4.3-2.4-7.3-3.8c-3-1.4-6.6-2.2-10.7-2.2c-3.9,0-7.4,0.8-10.7,2.5
		c-3.3,1.7-6.2,4.1-8.6,7.3c-2.5,3.2-4.4,7-5.8,11.5c-1.4,4.5-2.1,9.5-2.1,15.2c0,5.9,0.8,11.1,2.3,15.7c1.5,4.6,3.7,8.5,6.3,11.7
		c2.7,3.2,5.9,5.6,9.6,7.2c3.7,1.6,7.8,2.3,12.1,2.1c3.3-0.2,6.2-1.1,8.9-2.7c2.6-1.6,4.7-3.4,6.3-5.5c0.5,2.9,1.5,5,3.1,6.3
		c1.6,1.3,4,1.9,7.2,1.9h16.8v-0.9c-1.1,0-2-0.3-2.7-1c-0.7-0.7-1-1.6-1-2.7V214.6z M277.8,201.3v17.9c0,1.1-0.3,2-1,2.7
		c-0.7,0.7-1.6,1-2.7,1v0.9h16.7h12.4h2.1v-0.9c-1.1,0-2-0.3-2.7-1c-0.7-0.7-1-1.6-1-2.7v-17.9v-28.6V155c0-1.1,0.3-2,1-2.7
		c0.7-0.7,1.6-1,2.7-1v-0.9h-2.1h-12.4h-16.7v0.9c1.1,0,2,0.3,2.7,1c0.7,0.7,1,1.6,1,2.7v17.7V201.3z M298,123
		c-2.3-2.3-5.1-3.5-8.4-3.5c-3.2,0-5.9,1.2-8.3,3.5c-2.3,2.3-3.5,5.1-3.5,8.3c0,3.3,1.2,6.1,3.5,8.3c2.3,2.3,5.1,3.4,8.3,3.4
		c3.3,0,6.1-1.1,8.4-3.4c2.3-2.3,3.5-5.1,3.5-8.3C301.5,128.1,300.3,125.4,298,123 M235.8,152.8c1.5-1.1,3.4-1.6,5.7-1.6
		c3.2,0,6,0.6,8.6,1.8c2.5,1.2,4.7,2.7,6.6,4.5c1.8,1.8,3.3,3.8,4.4,6c1.1,2.1,1.8,4.1,2.1,6h0.7v-17.9c-2.2,0.8-4.2,1.2-5.9,1.1
		c-1.8,0-3.5-0.2-5.2-0.6c-1.7-0.3-3.4-0.7-5.3-1.1c-1.8-0.4-3.8-0.6-6-0.6c-3.5,0-6.7,0.4-9.7,1.2c-3,0.8-5.6,1.9-7.9,3.3
		c-2.3,1.4-4.1,3.1-5.3,5.1c-1.3,2-1.9,4.2-1.9,6.6c0,3.1,0.9,5.9,2.6,8.6c1.7,2.6,3.9,5.2,6.4,7.6c2.5,2.4,5.3,4.8,8.3,7.2
		c3,2.4,5.8,4.8,8.3,7.3c2.5,2.5,4.6,5.1,6.4,7.9c1.7,2.8,2.6,5.8,2.6,8.9c0,2-0.3,3.6-1,4.8c-0.7,1.2-1.6,2.1-2.7,2.7
		c-1.1,0.6-2.3,1-3.6,1.2c-1.3,0.2-2.6,0.3-3.8,0.3c-3.5,0-6.1-1-7.9-3.1c-0.8-1-1.1-2.1-1-3.2c0.1-1.1,0.7-2.3,1.8-3.4
		c0.5-0.6,1-1.1,1.6-1.6c0.5-0.5,1.1-1.1,1.6-1.9c1.2-1.8,1.8-3.9,1.8-6.4c0-3.2-1.2-5.9-3.4-8.3c-2.3-2.3-5.1-3.5-8.4-3.5
		c-3.3,0-6.1,1.2-8.4,3.5c-2.3,2.3-3.4,5.1-3.4,8.3c0,2.9,0.7,5.6,2,8c1.3,2.5,3.2,4.6,5.5,6.5c2.3,1.8,5.1,3.3,8.2,4.3
		c3.1,1,6.5,1.6,10.1,1.6c3.8,0,7.3-0.4,10.6-1.3c3.3-0.9,6.1-2.2,8.5-3.9c2.4-1.7,4.2-3.9,5.6-6.4c1.3-2.5,2-5.4,2-8.7
		c0-3.8-0.8-7.2-2.4-10.3c-1.6-3.1-3.6-6-6-8.6c-2.4-2.7-5-5.2-7.7-7.4c-2.8-2.3-5.4-4.5-7.8-6.7c-2.4-2.2-4.5-4.3-6.2-6.5
		c-1.7-2.1-2.6-4.4-2.8-6.8C233.6,155.3,234.3,153.9,235.8,152.8 M182.8,225.8c-2.2,2.6-5.2,4.5-8.9,5.7l9.4-21.8
		c1.9,2.2,2.8,4.7,2.8,7.4C186.2,220.3,185.1,223.2,182.8,225.8 M157.1,231.6c-2.5-0.8-4.7-2-6.6-3.5c-1.9-1.5-3.4-3.2-4.5-5.2
		c-1.1-2-1.6-4.1-1.6-6.4v-2.8v-1v-3.3c3.2-1.8,6.5-3.2,10-4.3c3.5-1.1,7.1-1.6,10.9-1.6h1.7c0.5,0,1.1,0.1,1.7,0.1l8.2,19.2
		l-3.9,9.1c-1.2,0.3-2.4,0.5-3.6,0.7c-1.2,0.2-2.6,0.3-3.9,0.3C162.4,232.9,159.6,232.5,157.1,231.6 M82.7,219.2
		c0.7-1.2,1.6-2.2,2.8-3.1c2,2.8,4.7,4.8,8,6.2c3.4,1.3,7.1,1.8,11,1.4c3.3-0.3,6.4-1.1,9.2-2.5c2.9-1.3,5.3-3.1,7.3-5.3
		c0.4,2.2,1.1,3.9,2.2,5.1c-4.5,3.2-8.9,5.9-13.4,8.3c-4.5,2.3-9.1,3.5-14,3.5c-1.9,0-3.7-0.2-5.4-0.7c-1.7-0.4-3.2-1.1-4.5-1.9
		c-1.3-0.8-2.4-1.9-3.2-3.1c-0.8-1.2-1.2-2.5-1.2-4C81.6,221.7,82,220.4,82.7,219.2 M120.7,204.9v5.7c0,0.8,0,1.6,0.1,2.3
		c0,0.7,0.1,1.5,0.2,2.2c-0.3,0.3-0.6,0.6-0.8,0.8c-0.2,0.2-0.6,0.5-1,0.8c-1.3,0.9-2.7,1.4-4.3,1.6c-1.6,0.2-3.1-0.1-4.5-1
		c-1.4-0.9-2.6-2.4-3.6-4.5c-0.9-2.1-1.4-5.1-1.4-8.9c0-4.9,0.5-8.7,1.6-11.5c1.1-2.8,2.4-5.1,4-6.9c1.6-1.7,3.3-3.2,5-4.5
		c1.7-1.2,3.3-2.8,4.7-4.5V204.9z M192.6,150.4v0.7c2.8,0,5.1,1,7.1,2.9c1.9,1.9,2.9,4.3,2.9,7.1c0,1.4-0.3,2.7-0.9,3.9l-13.3,30.8
		l-17.7-41.3c0-0.2,0-0.4-0.1-0.5c-0.1-0.1-0.1-0.3-0.1-0.5c0-1.6,0.8-2.4,2.4-2.4v-0.7h-29.5v0.7c1.6,0,2.8,0.8,3.7,2.5l20.3,46.9
		h-2.1H165c-3.8,0-7.4,0.6-10.8,1.7c-3.4,1.1-6.7,2.6-9.9,4.4v-36.1c0-2.8-0.8-5.4-2.3-7.9c-1.5-2.5-3.6-4.6-6.2-6.5
		c-2.6-1.8-5.6-3.3-9.1-4.3c-3.5-1-7.2-1.6-11.2-1.6c-4,0-7.7,0.5-11.2,1.6c-3.5,1-6.5,2.5-9.2,4.3c-2.6,1.8-4.7,4-6.2,6.5
		c-1.5,2.5-2.2,5.1-2.2,7.9c0,3.3,1.1,6.1,3.4,8.3c2.3,2.3,5.1,3.4,8.3,3.4c3.3,0,6.1-1.1,8.3-3.4c2.3-2.3,3.4-5.1,3.4-8.3
		c0-1.7-0.3-3.2-0.9-4.6c-0.6-1.4-1.4-2.6-2.5-3.7c-0.8-0.8-1.6-1.7-2.5-2.6c-0.9-0.9-1.1-2.1-0.7-3.5c0.5-2.7,3-4.3,7.6-4.8
		c3.8-0.5,6.3,0.6,7.5,3.4c1.2,2.8,1.9,7,1.9,12.7v7.4c-0.8,1.4-2.4,2.9-4.7,4.5c-2.3,1.6-6.1,3.2-11.4,4.8
		c-2.6,0.8-5.1,1.7-7.6,2.8c-2.5,1-4.7,2.3-6.7,3.9c-2,1.5-3.7,3.4-5.1,5.4c-1.4,2.1-2.2,4.6-2.5,7.6c-0.4,4.4,0.4,8.2,2.4,11.5
		c-2.8,2.2-4.2,4.8-4.2,7.7c0,1.5,0.4,3,1.2,4.5c0.8,1.5,1.9,2.8,3.2,3.9c1.3,1.1,2.9,2,4.8,2.7c1.8,0.7,3.8,1,5.9,1
		c5.3,0,10.2-1.3,14.9-3.9c4.7-2.6,9.4-5.6,14.2-8.9c1.6,0.9,3.7,1.3,6.4,1.3h14c1.7,3.1,4.3,5.5,7.9,7.3c3.6,1.8,7.6,2.7,12.1,2.7
		c2.5,0,4.9-0.3,7.3-0.9l-8.3,19.4c-2.5,5.5-6.1,8.9-10.7,10.4c-0.3,0.2-0.8,0.3-1.5,0.3c-1,0-1.9-0.3-2.8-1
		c-0.8-0.6-1.5-1.4-1.9-2.4c-0.4-0.9-0.5-2-0.4-3.2c0.1-1.2,0.6-2.4,1.5-3.6c0.2-0.4,0.4-0.7,0.7-1c0.3-0.3,0.6-0.6,1-1
		c2.6-2.1,3.9-5,3.9-8.8c0-3.2-1.1-5.9-3.4-8.3c-2.3-2.3-5.1-3.5-8.3-3.5c-3.3,0-6.1,1.2-8.3,3.5c-2.3,2.3-3.4,5.1-3.4,8.3
		c0,3.1,0.5,6,1.4,8.6c0.9,2.7,2.3,5,3.9,7.1c1.7,2,3.6,3.6,5.8,4.8c2.2,1.2,4.6,1.8,7.2,1.8c3.8,0,7-1.1,9.8-3.3
		c2.7-2.2,4.8-5,6.3-8.5l8.5-20c4.1-1.3,7.3-3.3,9.8-6c2.5-2.7,3.7-5.8,3.7-9.3c0-3.1-1-6-3.1-8.6l19.8-46c1.3-3.1,3.2-5.7,5.8-8
		c2.6-2.2,5.6-3.4,9.1-3.4v-0.7H192.6z M32.4,218.7c-1.5-1.1-3-2.7-4.2-4.5c0-0.5,0-1,0.1-1.6c0-0.6,0.1-1.2,0.1-1.8v-9.1v-43.8
		c1.1-0.7,2.4-1.3,3.8-1.9c1.4-0.5,3-0.8,4.7-0.7c1.8,0.2,3.5,0.9,5,2c1.5,1.1,2.9,3,4,5.4c1.1,2.5,2.1,5.7,2.8,9.8
		c0.7,4,1.1,8.9,1.2,14.7c0.2,11.7-0.9,20.4-3.2,25.9c-2.3,5.6-5.5,8.1-9.5,7.6C35.5,220.5,33.9,219.8,32.4,218.7 M35.5,152.8
		c-2.9,1.4-5.3,2.7-7.2,3.8v-4.9v-10v-9.1c0-4.8-0.8-8.1-2.4-10.1c-1.6-2-4.4-3-8.3-3H0.9v0.9c1.1,0,2,0.3,2.7,1
		c0.7,0.7,1,1.6,1,2.7V142v10.4v48.9v13.3v4.6c0,1.1-0.3,2-1,2.7c-0.7,0.7-1.6,1-2.7,1v0.9h16.7c3.2,0,5.6-0.6,7.2-1.9
		c1.6-1.3,2.6-3.4,3.1-6.3c1.7,2.1,3.8,3.9,6.4,5.5c2.6,1.6,5.5,2.5,8.8,2.7c4.5,0.2,8.6-0.5,12.3-2.1c3.7-1.6,6.9-4,9.6-7.2
		c2.7-3.2,4.8-7.1,6.3-11.7c1.5-4.6,2.2-9.9,2.2-15.7c0-5.7-0.7-10.7-2.1-15.2c-1.4-4.5-3.3-8.3-5.7-11.5c-2.4-3.2-5.3-5.6-8.6-7.3
		c-3.3-1.7-6.9-2.5-10.8-2.5C42,150.7,38.4,151.4,35.5,152.8"/>
	<path class="st0" d="M365.1,23.3c0.4-0.1,0.9-0.2,1.4-0.2c0.6,0,1,0.1,1.4,0.2c0.4,0.1,0.6,0.2,0.7,0.3c1.3,0.8,2.3,1.8,3,3.2
		c0.7,1.3,1.3,2.9,1.6,4.6c0.4,1.7,0.6,3.5,0.6,5.4c0.1,1.9,0.1,3.8,0.1,5.6H359v-0.7c0-5.5,0.4-9.7,1.3-12.4c0.9-2.8,2.2-4.6,4-5.6
		C364.5,23.6,364.8,23.5,365.1,23.3 M372.7,54.4c-1.7,1.7-2.5,3.6-2.5,5.9c0,2.3,0.9,4.4,2.6,6.1c0.6,0.6,1.2,1.2,1.8,1.9
		c0.6,0.7,0.8,1.5,0.6,2.5c-0.4,1.3-1.3,2.3-2.7,2.8c-1.5,0.5-2.8,0.7-3.9,0.7c-1.6,0-3-0.3-4.2-0.9c-1.2-0.6-2.1-1.6-2.9-3.1
		c-0.8-1.5-1.4-3.4-1.8-5.7c-0.4-2.4-0.6-5.4-0.6-9v-6.9V43h30.8c0-2.4-0.6-4.9-1.7-7.3c-1.1-2.5-2.7-4.7-4.8-6.7
		c-2.1-2-4.5-3.5-7.3-4.8c-2.8-1.2-6-1.9-9.4-1.9c-3.8,0-7.1,0.7-10.2,2.1c-3,1.4-5.6,3.2-7.7,5.6c-2.1,2.3-3.7,5.1-4.8,8.3
		c-1.1,3.2-1.6,6.6-1.6,10.2c0,3.6,0.5,7,1.6,10.2c1.1,3.2,2.7,6,4.8,8.4c2.1,2.4,4.6,4.3,7.7,5.6c3,1.4,6.4,2.1,10.2,2.1
		c2.8,0,5.5-0.4,8-1.1c2.5-0.7,4.6-1.8,6.5-3.1c1.8-1.3,3.3-2.9,4.4-4.6c1.1-1.7,1.6-3.6,1.6-5.7c0-2.3-0.8-4.2-2.5-5.9
		c-1.7-1.7-3.6-2.5-5.9-2.5C376.4,51.9,374.4,52.7,372.7,54.4 M334.4,71.5v-6V36.1c0-4.1-0.9-7.2-2.7-9.4c-1.8-2.1-4.1-3.5-6.9-4
		c-2.8-0.6-5.8-0.5-9.1,0.3c-3.3,0.8-6.4,2.1-9.3,3.8l0-3.5v-7.1V9.7c0-3.4-0.6-5.8-1.7-7.2c-1.1-1.4-3.1-2.1-6-2.1h-11.9V1
		c0.8,0,1.4,0.2,1.9,0.7c0.5,0.5,0.7,1.1,0.7,1.9v12.8v7.4v34.9v12.8c0,0.8-0.2,1.4-0.7,1.9c-0.5,0.5-1.1,0.7-1.9,0.7v0.6h11.9h8.9
		h1.5v-0.6c-0.8,0-1.4-0.2-1.9-0.7c-0.5-0.5-0.8-1.1-0.8-1.9V58.8v-3.4V27.7c1.1-0.6,2.2-1.1,3.5-1.5c1.3-0.4,2.5-0.4,3.6-0.1
		c1.1,0.3,2.1,1.1,2.8,2.2c0.7,1.2,1.1,3,1.1,5.4V64v7.6c0,0.8-0.3,1.4-0.8,1.9c-0.5,0.5-1.2,0.7-1.9,0.7v0.6h11.9h9h1.4v-0.6
		c-0.8,0-1.4-0.2-1.9-0.7C334.7,73,334.4,72.3,334.4,71.5 M281.6,69.4c-1.1,0.6-2.1,1.2-3.2,1.6c-1.1,0.4-2.1,0.5-3,0.2
		c-0.9-0.3-1.6-1-2.2-2.2c-0.6-1.2-0.9-3-0.9-5.5V33.2v-7.6V23h6.8v-0.6h-6.8V10.7h-0.6c-0.2,1.6-0.9,3.2-2.2,4.6
		c-1.2,1.4-2.8,2.7-4.5,3.7c-1.8,1.1-3.7,1.9-5.9,2.5c-2.2,0.6-4.3,0.9-6.3,0.9V23c0.8,0,1.4,0.2,1.9,0.7c0.5,0.5,0.7,1.1,0.7,1.9v6
		v29.5c0,2.5,0.4,4.6,1.1,6.3c0.7,1.7,1.7,3.2,2.9,4.3c1.2,1.1,2.6,1.9,4.3,2.4c1.6,0.5,3.4,0.7,5.2,0.7c2.4,0,4.7-0.5,6.9-1.4
		c2.2-1,4.1-2,5.7-3.1L281.6,69.4z M195.6,67.2c-1.6-4-2.4-10.1-2.2-18.5c0.1-4.1,0.3-7.6,0.8-10.5c0.5-2.9,1.1-5.2,1.9-7
		c0.8-1.8,1.8-3.1,2.9-3.9c1.1-0.8,2.4-1.3,3.6-1.4c1.1-0.1,2.2,0.1,3.3,0.5c1,0.4,2,0.8,2.8,1.3V59v6.5v1.3c0,0.4,0,0.8,0.1,1.2
		c-0.9,1.3-2,2.4-3.1,3.2c-1.1,0.8-2.3,1.3-3.4,1.4C199.5,73,197.2,71.2,195.6,67.2 M225.7,68.2v-9.5V23.9V9.7
		c0-3.4-0.6-5.8-1.7-7.2c-1.1-1.4-3.1-2.1-6-2.1h-11.9V1c0.8,0,1.4,0.2,1.9,0.7c0.5,0.5,0.8,1.1,0.8,1.9v19.7v3.5
		c-1.3-0.8-3.1-1.7-5.2-2.7c-2.1-1-4.7-1.5-7.7-1.5c-2.8,0-5.3,0.6-7.7,1.8c-2.3,1.2-4.4,2.9-6.2,5.2c-1.8,2.3-3.2,5-4.2,8.2
		c-1,3.2-1.5,6.8-1.5,10.9c0,4.2,0.5,7.9,1.6,11.2c1.1,3.3,2.6,6.1,4.5,8.4c1.9,2.3,4.2,4,6.9,5.1c2.7,1.1,5.6,1.6,8.7,1.5
		c2.3-0.1,4.5-0.8,6.3-1.9c1.9-1.1,3.4-2.4,4.5-3.9c0.4,2.1,1.1,3.5,2.2,4.5c1.1,0.9,2.9,1.4,5.1,1.4h12v-0.6
		c-0.8,0-1.4-0.2-1.9-0.7c-0.5-0.5-0.7-1.1-0.7-1.9V68.2z M168.5,71.5v-6V36.1c0-2.5-0.4-4.6-1.1-6.3c-0.7-1.7-1.7-3.2-2.8-4.3
		c-1.2-1.1-2.6-1.9-4.2-2.4c-1.6-0.5-3.3-0.7-5.1-0.7c-2.4,0-5,0.4-7.6,1.3c-2.7,0.9-5.2,2-7.6,3.5c-0.4-1.7-1.2-2.9-2.3-3.7
		c-1.1-0.7-2.7-1.1-4.8-1.1H121V23c0.8,0,1.4,0.2,1.9,0.7c0.5,0.5,0.7,1.1,0.7,1.9v33.1v12.8c0,0.8-0.2,1.4-0.7,1.9
		c-0.5,0.5-1.1,0.7-1.9,0.7v0.6h11.9h8.9h1.5v-0.6c-0.8,0-1.4-0.2-1.9-0.7c-0.5-0.5-0.8-1.1-0.8-1.9V58.8v-3.4V31.7
		c0-1.4-0.1-2.7-0.3-3.9c1.1-0.6,2.3-1.2,3.6-1.6c1.3-0.4,2.6-0.5,3.7-0.2c1.2,0.3,2.1,1,2.9,2.2c0.8,1.2,1.2,3.1,1.2,5.5V64v7.6
		c0,0.8-0.3,1.4-0.8,1.9c-0.5,0.5-1.2,0.7-1.9,0.7v0.6h11.9h9h1.4v-0.6c-0.8,0-1.4-0.2-1.9-0.7C168.8,73,168.5,72.3,168.5,71.5
		 M113,44.5v-3.8c0-0.8,0.3-1.4,0.8-1.9c0.5-0.5,1.2-0.7,2-0.7v-0.6h-1.5h-8.9h-12h-1.1h-2.6v-3.9V17.4c0-5.7,0.4-9.8,1.2-12.3
		c0.8-2.6,2.5-3.8,5.2-3.8C97,1.2,97.9,1.5,99,2c1.1,0.5,1.7,1.4,2,2.7c0.2,1,0,1.8-0.6,2.5c-0.6,0.7-1.2,1.3-1.8,1.9
		c-0.8,0.8-1.4,1.7-1.8,2.7c-0.4,1-0.6,2.1-0.6,3.3c0,2.3,0.8,4.3,2.5,6c1.6,1.6,3.6,2.4,6,2.4c2.4,0,4.4-0.8,6-2.4
		c1.6-1.6,2.5-3.6,2.5-6c0-2-0.4-3.9-1.3-5.6c-0.9-1.8-2.1-3.3-3.7-4.6c-1.6-1.3-3.5-2.4-5.8-3.1c-2.3-0.8-4.8-1.2-7.5-1.2
		c-6.9,0-12.3,2-16.1,6.1c-3.8,4-5.7,9.7-5.7,17v45.1v3c0,0.8-0.2,1.4-0.7,1.9c-0.5,0.5-1.1,0.7-1.9,0.7v0.6h1.7h20.6v-0.6
		c-0.8,0-1.4-0.2-2-0.7c-0.5-0.5-0.8-1.1-0.8-1.9V38h3.6c0.8,0,1.4,0.2,1.9,0.7c0.5,0.5,0.7,1.1,0.7,1.9v3.8v14.3v12.8
		c0,0.8-0.2,1.4-0.7,1.9c-0.5,0.5-1.1,0.7-1.9,0.7v0.6h11.9h8.9h1.5v-0.6c-0.8,0-1.4-0.2-2-0.7c-0.5-0.5-0.8-1.1-0.8-1.9V58.8V44.5z
		"/>
</g>
</svg>
